<svg width="31" height="32" viewBox="0 0 31 32" fill="none" xmlns="http://www.w3.org/2000/svg">
<path d="M26.3039 0.960938H4.63508C2.07065 0.960938 -0.00823975 3.03982 -0.00823975 5.60426V27.2731C-0.00823975 29.8375 2.07065 31.9164 4.63508 31.9164H26.3039C28.8684 31.9164 30.9472 29.8375 30.9472 27.2731V5.60426C30.9472 3.03982 28.8684 0.960938 26.3039 0.960938Z" fill="#D3C58D"/>
<path d="M21.4908 20.9126L22.18 16.4386H17.8874V13.5365C17.8874 12.3152 18.4859 11.1181 20.4085 11.1181H22.3614V7.30914C22.3614 7.30914 20.5899 7.00684 18.897 7.00684C15.3601 7.00684 13.0506 9.14712 13.0506 13.0286V16.4386H9.12067V20.9126H13.0506V31.9163H17.8874V20.9126H21.4908Z" fill="#082F42"/>
</svg>
