<svg width="31" height="32" viewBox="0 0 31 32" fill="none" xmlns="http://www.w3.org/2000/svg">
<path d="M26.3567 0.0861816H4.68788C2.12344 0.0861816 0.0445557 2.16507 0.0445557 4.72951V26.3983C0.0445557 28.9628 2.12344 31.0417 4.68788 31.0417H26.3567C28.9212 31.0417 31 28.9628 31 26.3983V4.72951C31 2.16507 28.9212 0.0861816 26.3567 0.0861816Z" fill="white"/>
<path d="M21.5436 20.0379L22.2328 15.5638H17.9402V12.6618C17.9402 11.4405 18.5387 10.2434 20.4613 10.2434H22.4142V6.43438C22.4142 6.43438 20.6427 6.13208 18.9498 6.13208C15.4129 6.13208 13.1034 8.27236 13.1034 12.1539V15.5638H9.17346V20.0379H13.1034V31.0416H17.9402V20.0379H21.5436Z" fill="black"/>
</svg>
