<svg width="36" height="36" viewBox="0 0 36 36" fill="none" xmlns="http://www.w3.org/2000/svg">
<circle cx="18.0525" cy="18" r="17.9016" fill="white"/>
<path d="M29.5631 18.3493C29.5631 11.9546 24.4107 6.77075 18.0549 6.77075C11.6991 6.77075 6.54669 11.9546 6.54669 18.3493C6.54669 24.1283 10.7551 28.9185 16.2567 29.7871V21.6962H13.3347V18.3493H16.2567V15.7984C16.2567 12.8965 17.9749 11.2936 20.6035 11.2936C21.8627 11.2936 23.1796 11.5198 23.1796 11.5198V14.3692H21.7285C20.299 14.3692 19.853 15.2618 19.853 16.1774V18.3493H23.0447L22.5346 21.6962H19.853V29.7871C25.3548 28.9185 29.5631 24.1286 29.5631 18.3493Z" fill="#003D5A"/>
</svg>
