<svg width="36" height="36" viewBox="0 0 36 36" fill="none" xmlns="http://www.w3.org/2000/svg">
<circle cx="18.0164" cy="18" r="17.9016" fill="white"/>
<path d="M27.8621 14.5261C27.8621 15.8749 26.7594 16.9875 25.4006 16.9875C24.0419 16.9875 22.9391 15.8749 22.9391 14.5261C22.9391 15.8749 21.8364 16.9875 20.4777 16.9875C19.1189 16.9875 18.0162 15.8749 18.0162 14.5261C18.0162 15.8749 16.9134 16.9875 15.5547 16.9875C14.196 16.9875 13.0932 15.8749 13.0932 14.5261C13.0932 15.8749 11.9905 16.9875 10.6318 16.9875C9.27303 16.9875 8.17029 15.8749 8.17029 14.5261L9.53887 9.18958C9.53887 9.18958 9.8244 8.12622 10.8287 8.12622H25.2037C26.208 8.12622 26.4935 9.18958 26.4935 9.18958L27.8621 14.5261ZM26.8775 18.169V25.8488C26.8775 26.9319 25.9914 27.818 24.9083 27.818H11.1241C10.041 27.818 9.15488 26.9319 9.15488 25.8488V18.169C9.80213 18.4363 10.5094 18.5243 11.2024 18.4238C11.8954 18.3233 12.5486 18.0381 13.0932 17.598C13.7726 18.1395 14.6292 18.4644 15.5547 18.4644C16.4901 18.4644 17.3467 18.1395 18.0162 17.598C18.6956 18.1395 19.5522 18.4644 20.4777 18.4644C21.413 18.4644 22.2696 18.1395 22.9391 17.598C23.6087 18.1395 24.4751 18.4644 25.4006 18.4644C25.9224 18.4644 26.4246 18.3561 26.8775 18.169ZM24.9083 23.22C24.9083 23.0231 24.9083 22.8163 24.8591 22.5997L24.8296 22.4422H21.9053V23.5941H23.6874C23.6284 23.8107 23.5496 24.0274 23.3822 24.2046C23.0573 24.5295 22.6142 24.7067 22.1416 24.7067C21.6493 24.7067 21.1669 24.5 20.8124 24.1553C20.1331 23.4563 20.1331 22.324 20.8321 21.6151C21.5115 20.9259 22.6339 20.9259 23.3428 21.5856L23.4807 21.7136L24.3077 20.8767L24.1502 20.7388C23.5988 20.2268 22.8702 19.9413 22.1022 19.9413H22.0924C21.2949 19.9413 20.5466 20.2465 19.9854 20.7979C19.4045 21.369 19.0795 22.1172 19.0795 22.8951C19.0795 23.6827 19.3848 24.4113 19.946 24.9529C20.5308 25.5237 21.3146 25.845 22.1318 25.8488H22.1515C22.9391 25.8488 23.6382 25.5633 24.1502 25.0612C24.6129 24.5886 24.9083 23.8797 24.9083 23.22Z" fill="#003D5A"/>
</svg>
