<svg width="32" height="33" viewBox="0 0 32 33" fill="none" xmlns="http://www.w3.org/2000/svg">
<path d="M15.9924 0.438721C11.6472 0.438721 11.1019 0.457721 9.39525 0.535388C7.69196 0.613388 6.52933 0.883055 5.51202 1.27872C4.45972 1.68739 3.56708 2.23406 2.67777 3.12372C1.7878 4.01306 1.24115 4.90573 0.831158 5.95773C0.434503 6.9754 0.164511 8.1384 0.0878465 9.84107C0.0115154 11.5477 -0.00848389 12.0934 -0.00848389 16.4387C-0.00848389 20.7841 0.0108492 21.3278 0.0881803 23.0344C0.166511 24.7378 0.43617 25.9004 0.831492 26.9178C1.24048 27.9701 1.78713 28.8628 2.67677 29.7521C3.56575 30.6421 4.45839 31.1901 5.51002 31.5988C6.52799 31.9944 7.69096 32.2641 9.39391 32.3421C11.1005 32.4198 11.6455 32.4388 15.9904 32.4388C20.3359 32.4388 20.8796 32.4198 22.5862 32.3421C24.2895 32.2641 25.4534 31.9944 26.4714 31.5988C27.5234 31.1901 28.4147 30.6421 29.3037 29.7521C30.1936 28.8628 30.7403 27.9701 31.1503 26.9181C31.5436 25.9004 31.8136 24.7374 31.8936 23.0348C31.9703 21.3281 31.9903 20.7841 31.9903 16.4387C31.9903 12.0934 31.9703 11.5481 31.8936 9.8414C31.8136 8.13807 31.5436 6.9754 31.1503 5.95806C30.7403 4.90573 30.1936 4.01306 29.3037 3.12372C28.4137 2.23372 27.5237 1.68706 26.4704 1.27872C25.4504 0.883055 24.2871 0.613388 22.5839 0.535388C20.8772 0.457721 20.3339 0.438721 15.9874 0.438721H15.9924ZM14.5571 3.32206C14.9831 3.32139 15.4584 3.32206 15.9924 3.32206C20.2643 3.32206 20.7706 3.33739 22.4575 3.41406C24.0175 3.48539 24.8641 3.74606 25.4281 3.96506C26.1748 4.25506 26.7071 4.60173 27.2667 5.16173C27.8267 5.72173 28.1734 6.25506 28.464 7.00173C28.683 7.56506 28.944 8.41173 29.015 9.97173C29.0917 11.6584 29.1083 12.1651 29.1083 16.4351C29.1083 20.7051 29.0917 21.2118 29.015 22.8984C28.9437 24.4584 28.683 25.3051 28.464 25.8684C28.174 26.6151 27.8267 27.1468 27.2667 27.7064C26.7067 28.2664 26.1751 28.6131 25.4281 28.9031C24.8648 29.1231 24.0175 29.3831 22.4575 29.4544C20.7709 29.5311 20.2643 29.5478 15.9924 29.5478C11.7202 29.5478 11.2139 29.5311 9.52724 29.4544C7.96729 29.3824 7.12064 29.1218 6.55633 28.9028C5.80968 28.6128 5.27636 28.2661 4.71638 27.7061C4.1564 27.1461 3.80974 26.6141 3.51908 25.8671C3.30009 25.3038 3.03909 24.4571 2.9681 22.8971C2.89143 21.2104 2.8761 20.7037 2.8761 16.4311C2.8761 12.1584 2.89143 11.6544 2.9681 9.96774C3.03943 8.40773 3.30009 7.56106 3.51908 6.99706C3.80907 6.2504 4.1564 5.71706 4.71638 5.15706C5.27636 4.59706 5.80968 4.25039 6.55633 3.95973C7.12031 3.73973 7.96729 3.47973 9.52724 3.40806C11.0032 3.34139 11.5752 3.32139 14.5571 3.31806V3.32206ZM24.5328 5.97873C23.4728 5.97873 22.6129 6.83773 22.6129 7.89806C22.6129 8.95807 23.4728 9.81807 24.5328 9.81807C25.5928 9.81807 26.4528 8.95807 26.4528 7.89806C26.4528 6.83806 25.5928 5.97806 24.5328 5.97806V5.97873ZM15.9924 8.22206C11.4549 8.22206 7.77596 11.9011 7.77596 16.4387C7.77596 20.9764 11.4549 24.6538 15.9924 24.6538C20.5299 24.6538 24.2075 20.9764 24.2075 16.4387C24.2075 11.9011 20.5296 8.22206 15.9921 8.22206H15.9924ZM15.9924 11.1054C18.9376 11.1054 21.3256 13.4931 21.3256 16.4387C21.3256 19.3841 18.9376 21.7721 15.9924 21.7721C13.0468 21.7721 10.6592 19.3841 10.6592 16.4387C10.6592 13.4931 13.0468 11.1054 15.9924 11.1054V11.1054Z" fill="#D3C58D"/>
</svg>
