<svg width="33" height="33" viewBox="0 0 33 33" fill="none" xmlns="http://www.w3.org/2000/svg">
<path d="M16.0451 0.563965C11.6999 0.563965 11.1546 0.582965 9.44798 0.660632C7.7447 0.738632 6.58206 1.0083 5.56476 1.40397C4.51245 1.81263 3.61981 2.3593 2.73051 3.24897C1.84053 4.1383 1.29388 5.03097 0.883893 6.08297C0.487237 7.10064 0.217245 8.26364 0.140581 9.96631C0.0642498 11.673 0.0442505 12.2186 0.0442505 16.564C0.0442505 20.9093 0.0635836 21.453 0.140915 23.1597C0.219246 24.863 0.488904 26.0257 0.884226 27.043C1.29321 28.0953 1.83987 28.988 2.72951 29.8773C3.61848 30.7673 4.51112 31.3153 5.56276 31.724C6.58073 32.1197 7.7437 32.3893 9.44665 32.4673C11.1533 32.545 11.6982 32.564 16.0431 32.564C20.3887 32.564 20.9323 32.545 22.6389 32.4673C24.3422 32.3893 25.5062 32.1197 26.5242 31.724C27.5761 31.3153 28.4674 30.7673 29.3564 29.8773C30.2464 28.988 30.793 28.0953 31.203 27.0433C31.5963 26.0257 31.8663 24.8627 31.9463 23.16C32.023 21.4533 32.043 20.9093 32.043 16.564C32.043 12.2186 32.023 11.6733 31.9463 9.96665C31.8663 8.26331 31.5963 7.10064 31.203 6.08331C30.793 5.03097 30.2464 4.1383 29.3564 3.24897C28.4664 2.35897 27.5765 1.8123 26.5232 1.40397C25.5032 1.0083 24.3399 0.738632 22.6366 0.660632C20.93 0.582965 20.3867 0.563965 16.0401 0.563965H16.0451ZM14.6098 3.4473C15.0358 3.44664 15.5111 3.4473 16.0451 3.4473C20.317 3.4473 20.8233 3.46264 22.5103 3.5393C24.0702 3.61064 24.9169 3.8713 25.4808 4.0903C26.2275 4.3803 26.7598 4.72697 27.3195 5.28697C27.8794 5.84697 28.2261 6.38031 28.5168 7.12697C28.7358 7.69031 28.9967 8.53698 29.0677 10.097C29.1444 11.7836 29.1611 12.2903 29.1611 16.5603C29.1611 20.8303 29.1444 21.337 29.0677 23.0237C28.9964 24.5837 28.7358 25.4303 28.5168 25.9937C28.2268 26.7403 27.8794 27.272 27.3195 27.8317C26.7595 28.3917 26.2278 28.7383 25.4808 29.0283C24.9175 29.2483 24.0702 29.5083 22.5103 29.5797C20.8237 29.6563 20.317 29.673 16.0451 29.673C11.7729 29.673 11.2666 29.6563 9.57998 29.5797C8.02002 29.5077 7.17338 29.247 6.60906 29.028C5.86242 28.738 5.3291 28.3913 4.76911 27.8313C4.20913 27.2713 3.86247 26.7393 3.57182 25.9923C3.35282 25.429 3.09183 24.5823 3.02083 23.0223C2.94417 21.3357 2.92883 20.829 2.92883 16.5563C2.92883 12.2836 2.94417 11.7796 3.02083 10.093C3.09216 8.53298 3.35282 7.68631 3.57182 7.12231C3.86181 6.37564 4.20913 5.84231 4.76911 5.2823C5.3291 4.7223 5.86242 4.37564 6.60906 4.08497C7.17304 3.86497 8.02002 3.60497 9.57998 3.5333C11.0559 3.46664 11.6279 3.44664 14.6098 3.4433V3.4473ZM24.5855 6.10397C23.5256 6.10397 22.6656 6.96297 22.6656 8.02331C22.6656 9.08331 23.5256 9.94331 24.5855 9.94331C25.6455 9.94331 26.5055 9.08331 26.5055 8.02331C26.5055 6.96331 25.6455 6.10331 24.5855 6.10331V6.10397ZM16.0451 8.34731C11.5076 8.34731 7.82869 12.0263 7.82869 16.564C7.82869 21.1017 11.5076 24.779 16.0451 24.779C20.5827 24.779 24.2602 21.1017 24.2602 16.564C24.2602 12.0263 20.5823 8.34731 16.0448 8.34731H16.0451ZM16.0451 11.2306C18.9904 11.2306 21.3783 13.6183 21.3783 16.564C21.3783 19.5093 18.9904 21.8973 16.0451 21.8973C13.0995 21.8973 10.7119 19.5093 10.7119 16.564C10.7119 13.6183 13.0995 11.2306 16.0451 11.2306V11.2306Z" fill="white"/>
</svg>
