<svg width="36" height="36" viewBox="0 0 36 36" fill="none" xmlns="http://www.w3.org/2000/svg">
<circle cx="18.0885" cy="18" r="17.9016" fill="inherit"/>
<path fill-rule="evenodd" clip-rule="evenodd" d="M22.3936 7.89185H13.187C10.0091 7.89185 7.43292 10.468 7.43292 13.6459V22.8525C7.43292 26.0304 10.0091 28.6066 13.187 28.6066H22.3936C25.5714 28.6066 28.1477 26.0304 28.1477 22.8525V13.6459C28.1477 10.468 25.5714 7.89185 22.3936 7.89185ZM26.1337 22.8525C26.1274 24.9155 24.4565 26.5863 22.3936 26.5927H13.187C11.124 26.5863 9.45317 24.9155 9.44686 22.8525V13.6459C9.45317 11.5829 11.124 9.9121 13.187 9.90578H22.3936C24.4565 9.9121 26.1274 11.5829 26.1337 13.6459V22.8525ZM23.2567 13.9336C23.8923 13.9336 24.4075 13.4184 24.4075 12.7828C24.4075 12.1473 23.8923 11.632 23.2567 11.632C22.6211 11.632 22.1059 12.1473 22.1059 12.7828C22.1059 13.4184 22.6211 13.9336 23.2567 13.9336ZM17.7903 13.0705C14.9302 13.0705 12.6116 15.3891 12.6116 18.2492C12.6116 21.1094 14.9302 23.4279 17.7903 23.4279C20.6504 23.4279 22.969 21.1094 22.969 18.2492C22.9721 16.8748 22.4274 15.5558 21.4555 14.584C20.4837 13.6121 19.1647 13.0675 17.7903 13.0705ZM14.6255 18.2492C14.6255 19.9971 16.0424 21.414 17.7903 21.414C19.5382 21.414 20.9551 19.9971 20.9551 18.2492C20.9551 16.5014 19.5382 15.0845 17.7903 15.0845C16.0424 15.0845 14.6255 16.5014 14.6255 18.2492Z" fill="inherit"/>
</svg>
